<svg width="145" height="32" viewBox="0 0 145 32" fill="none" xmlns="http://www.w3.org/2000/svg">
<path d="M12.2192 7.19397C11.9803 6.61739 11.3041 6.3537 10.7709 6.67805C9.31597 7.56315 8.12548 8.75471 7.24952 10.1318C6.91038 10.665 7.17154 11.3539 7.75535 11.5957L11.0829 12.974C12.6555 13.6255 14.2307 12.0503 13.5793 10.4776L12.2192 7.19397Z" fill="white"/>
<path d="M7.28242 12.5816C6.71262 12.3456 6.05506 12.6274 5.89779 13.2237C5.47047 14.8441 5.41219 16.572 5.77735 18.2761C5.91036 18.8968 6.58495 19.2033 7.17143 18.9604L10.665 17.5133C12.2377 16.8618 12.2377 14.6342 10.665 13.9828L7.28242 12.5816Z" fill="white"/>
<path d="M7.51189 20.0011C6.94511 20.2359 6.67842 20.8949 6.98268 21.4277C7.88122 23.0009 9.13128 24.2809 10.5894 25.2084C11.1225 25.5475 11.8115 25.2863 12.0533 24.7025L13.5793 21.0184C14.2307 19.4457 12.6555 17.8706 11.0829 18.522L7.51189 20.0011Z" fill="white"/>
<path d="M13.0392 25.1755C12.8031 25.7453 13.0849 26.4028 13.6812 26.5601C15.3951 27.0121 17.2292 27.0512 19.0282 26.6131C19.6346 26.4655 19.9264 25.8008 19.6875 25.2242L18.1185 21.4362C17.4671 19.8636 15.2394 19.8636 14.588 21.4362L13.0392 25.1755Z" fill="white"/>
<path d="M20.6963 24.8064C20.9351 25.383 21.6114 25.6466 22.1446 25.3223C23.7264 24.36 24.9957 23.0354 25.888 21.5039C26.1984 20.971 25.9327 20.3068 25.3629 20.0708L21.6236 18.522C20.051 17.8705 18.4758 19.4457 19.1272 21.0184L20.6963 24.8064Z" fill="white"/>
<path d="M25.7256 19.0393C26.3094 19.2811 26.9812 18.9786 27.1184 18.3618C27.4936 16.675 27.4724 14.8859 26.9954 13.1381C26.8338 12.5463 26.1792 12.2689 25.6124 12.5036L22.0415 13.9828C20.4688 14.6342 20.4688 16.8618 22.0415 17.5133L25.7256 19.0393Z" fill="white"/>
<path d="M25.1172 11.527C25.7037 11.284 25.964 10.5903 25.6192 10.0573C24.6724 8.59415 23.4094 7.41356 21.9614 6.56994C21.4285 6.25946 20.7644 6.5252 20.5283 7.095L19.1272 10.4776C18.4758 12.0503 20.051 13.6255 21.6236 12.974L25.1172 11.527Z" fill="white"/>
<path d="M18.8193 5.33947C19.4362 5.47668 19.7386 6.14848 19.4968 6.73228L18.1185 10.0598C17.4671 11.6325 15.2394 11.6325 14.588 10.0598L13.2279 6.77614C12.989 6.19956 13.2808 5.53494 13.8871 5.38727C15.5418 4.98433 17.2262 4.98509 18.8193 5.33947Z" fill="white"/>
<path d="M45.6404 13.9607C45.6404 14.7329 45.4632 15.4419 45.1087 16.0876C44.7542 16.7206 44.2098 17.2333 43.4755 17.6258C42.7412 18.0182 41.8297 18.2145 40.7409 18.2145H38.728V23H35.4807V9.6689H40.7409C41.8044 9.6689 42.7032 9.85248 43.4375 10.2196C44.1718 10.5868 44.7225 11.0932 45.0897 11.7388C45.4568 12.3845 45.6404 13.1251 45.6404 13.9607ZM40.4941 15.6318C41.1144 15.6318 41.5765 15.4862 41.8803 15.195C42.1842 14.9039 42.3361 14.4924 42.3361 13.9607C42.3361 13.429 42.1842 13.0175 41.8803 12.7263C41.5765 12.4351 41.1144 12.2895 40.4941 12.2895H38.728V15.6318H40.4941ZM53.8446 12.2895C55.06 12.2895 56.0348 12.6947 56.7691 13.5049C57.5034 14.3025 57.8705 15.4039 57.8705 16.8092V23H54.6422V17.246C54.6422 16.537 54.4586 15.9863 54.0915 15.5938C53.7243 15.2014 53.2306 15.0051 52.6102 15.0051C51.9899 15.0051 51.4961 15.2014 51.129 15.5938C50.7619 15.9863 50.5783 16.537 50.5783 17.246V23H47.331V8.94728H50.5783V13.8278C50.9074 13.3593 51.3569 12.9859 51.9266 12.7073C52.4963 12.4288 53.1356 12.2895 53.8446 12.2895ZM64.9506 23.1519C63.9124 23.1519 62.9756 22.9304 62.14 22.4873C61.3171 22.0442 60.6651 21.4112 60.184 20.5882C59.7156 19.7653 59.4814 18.8032 59.4814 17.7017C59.4814 16.613 59.7219 15.6571 60.203 14.8342C60.6841 13.9987 61.3424 13.3593 62.178 12.9162C63.0136 12.4731 63.9504 12.2516 64.9886 12.2516C66.0267 12.2516 66.9635 12.4731 67.7991 12.9162C68.6347 13.3593 69.293 13.9987 69.7741 14.8342C70.2552 15.6571 70.4957 16.613 70.4957 17.7017C70.4957 18.7905 70.2488 19.7527 69.7551 20.5882C69.274 21.4112 68.6093 22.0442 67.7611 22.4873C66.9255 22.9304 65.9887 23.1519 64.9506 23.1519ZM64.9506 20.3414C65.5709 20.3414 66.0963 20.1135 66.5268 19.6577C66.9699 19.202 67.1914 18.55 67.1914 17.7017C67.1914 16.8535 66.9762 16.2015 66.5457 15.7458C66.128 15.29 65.6089 15.0621 64.9886 15.0621C64.3555 15.0621 63.8302 15.29 63.4124 15.7458C62.9946 16.1889 62.7857 16.8409 62.7857 17.7017C62.7857 18.55 62.9883 19.202 63.3934 19.6577C63.8112 20.1135 64.3302 20.3414 64.9506 20.3414ZM78.1244 20.2464V23H76.4723C75.2949 23 74.377 22.7151 73.7187 22.1454C73.0604 21.5631 72.7312 20.6199 72.7312 19.3159V15.1001H71.4399V12.4035H72.7312V9.82083H75.9785V12.4035H78.1054V15.1001H75.9785V19.3539C75.9785 19.6704 76.0545 19.8983 76.2064 20.0375C76.3583 20.1768 76.6115 20.2464 76.966 20.2464H78.1244ZM84.7567 23.1519C83.7186 23.1519 82.7817 22.9304 81.9462 22.4873C81.1233 22.0442 80.4713 21.4112 79.9902 20.5882C79.5218 19.7653 79.2875 18.8032 79.2875 17.7017C79.2875 16.613 79.5281 15.6571 80.0092 14.8342C80.4903 13.9987 81.1486 13.3593 81.9842 12.9162C82.8197 12.4731 83.7566 12.2516 84.7947 12.2516C85.8328 12.2516 86.7697 12.4731 87.6052 12.9162C88.4408 13.3593 89.0991 13.9987 89.5802 14.8342C90.0613 15.6571 90.3018 16.613 90.3018 17.7017C90.3018 18.7905 90.055 19.7527 89.5612 20.5882C89.0801 21.4112 88.4155 22.0442 87.5673 22.4873C86.7317 22.9304 85.7948 23.1519 84.7567 23.1519ZM84.7567 20.3414C85.3771 20.3414 85.9025 20.1135 86.3329 19.6577C86.776 19.202 86.9976 18.55 86.9976 17.7017C86.9976 16.8535 86.7823 16.2015 86.3519 15.7458C85.9341 15.29 85.415 15.0621 84.7947 15.0621C84.1617 15.0621 83.6363 15.29 83.2185 15.7458C82.8007 16.1889 82.5918 16.8409 82.5918 17.7017C82.5918 18.55 82.7944 19.202 83.1995 19.6577C83.6173 20.1135 84.1364 20.3414 84.7567 20.3414ZM96.8481 23.1329C95.8733 23.1329 94.9997 22.9747 94.2275 22.6582C93.4552 22.3417 92.8349 21.8733 92.3664 21.2529C91.9107 20.6326 91.6701 19.8856 91.6448 19.0121H95.101C95.1517 19.5058 95.3226 19.8856 95.6137 20.1515C95.9049 20.4047 96.2847 20.5313 96.7532 20.5313C97.2342 20.5313 97.614 20.4237 97.8926 20.2084C98.1711 19.9806 98.3104 19.6704 98.3104 19.2779C98.3104 18.9488 98.1964 18.6766 97.9685 18.4614C97.7533 18.2461 97.4811 18.0689 97.152 17.9296C96.8354 17.7904 96.3797 17.6321 95.7847 17.4549C94.9238 17.189 94.2211 16.9231 93.6768 16.6573C93.1324 16.3914 92.6639 15.999 92.2715 15.4799C91.879 14.9608 91.6828 14.2835 91.6828 13.4479C91.6828 12.2073 92.1322 11.2388 93.0311 10.5425C93.93 9.83349 95.101 9.479 96.5443 9.479C98.0128 9.479 99.1966 9.83349 100.095 10.5425C100.994 11.2388 101.475 12.2136 101.539 13.4669H98.0255C98.0002 13.0365 97.8419 12.701 97.5507 12.4605C97.2596 12.2073 96.8861 12.0807 96.4303 12.0807C96.0379 12.0807 95.7214 12.1883 95.4808 12.4035C95.2403 12.606 95.12 12.9036 95.12 13.296C95.12 13.7265 95.3226 14.062 95.7277 14.3025C96.1328 14.543 96.7658 14.8026 97.6267 15.0811C98.4876 15.3723 99.1839 15.6508 99.7156 15.9167C100.26 16.1825 100.728 16.5687 101.121 17.0751C101.513 17.5815 101.71 18.2335 101.71 19.0311C101.71 19.7907 101.513 20.4806 101.121 21.101C100.741 21.7213 100.184 22.2151 99.4498 22.5822C98.7155 22.9494 97.8483 23.1329 96.8481 23.1329ZM108.532 23.1519C107.493 23.1519 106.557 22.9304 105.721 22.4873C104.898 22.0442 104.246 21.4112 103.765 20.5882C103.297 19.7653 103.062 18.8032 103.062 17.7017C103.062 16.613 103.303 15.6571 103.784 14.8342C104.265 13.9987 104.923 13.3593 105.759 12.9162C106.595 12.4731 107.531 12.2516 108.569 12.2516C109.608 12.2516 110.544 12.4731 111.38 12.9162C112.216 13.3593 112.874 13.9987 113.355 14.8342C113.836 15.6571 114.077 16.613 114.077 17.7017C114.077 18.7905 113.83 19.7527 113.336 20.5882C112.855 21.4112 112.19 22.0442 111.342 22.4873C110.506 22.9304 109.57 23.1519 108.532 23.1519ZM108.532 20.3414C109.152 20.3414 109.677 20.1135 110.108 19.6577C110.551 19.202 110.772 18.55 110.772 17.7017C110.772 16.8535 110.557 16.2015 110.127 15.7458C109.709 15.29 109.19 15.0621 108.569 15.0621C107.936 15.0621 107.411 15.29 106.993 15.7458C106.576 16.1889 106.367 16.8409 106.367 17.7017C106.367 18.55 106.569 19.202 106.974 19.6577C107.392 20.1135 107.911 20.3414 108.532 20.3414ZM119.047 8.94728V23H115.799V8.94728H119.047ZM126.167 19.9616L128.464 12.4035H131.921L128.161 23H124.154L120.394 12.4035H123.869L126.167 19.9616ZM143.276 17.5308C143.276 17.8347 143.257 18.1512 143.219 18.4803H135.87C135.921 19.1387 136.13 19.6451 136.497 19.9996C136.877 20.3414 137.339 20.5123 137.883 20.5123C138.693 20.5123 139.257 20.1705 139.573 19.4868H143.029C142.852 20.1831 142.529 20.8098 142.061 21.3668C141.605 21.9239 141.029 22.3607 140.333 22.6772C139.636 22.9937 138.858 23.1519 137.997 23.1519C136.959 23.1519 136.035 22.9304 135.224 22.4873C134.414 22.0442 133.781 21.4112 133.325 20.5882C132.87 19.7653 132.642 18.8032 132.642 17.7017C132.642 16.6003 132.863 15.6381 133.306 14.8152C133.762 13.9923 134.395 13.3593 135.205 12.9162C136.016 12.4731 136.946 12.2516 137.997 12.2516C139.022 12.2516 139.934 12.4668 140.732 12.8972C141.529 13.3277 142.149 13.9417 142.593 14.7393C143.048 15.5369 143.276 16.4674 143.276 17.5308ZM139.953 16.6763C139.953 16.1192 139.763 15.6761 139.383 15.347C139.003 15.0178 138.529 14.8532 137.959 14.8532C137.415 14.8532 136.953 15.0115 136.573 15.328C136.206 15.6445 135.978 16.0939 135.889 16.6763H139.953Z" fill="white"/>
</svg>
