<svg width="110" height="20" viewBox="0 0 110 20" fill="none" xmlns="http://www.w3.org/2000/svg">
<path d="M6.27311 4.15233C6.11078 3.76042 5.65114 3.58119 5.28873 3.80166C4.2998 4.40326 3.49061 5.21317 2.89522 6.14922C2.66471 6.51163 2.84222 6.97987 3.23904 7.14424L5.50076 8.08107C6.56971 8.52385 7.64037 7.45318 7.1976 6.38423L6.27311 4.15233Z" fill="#007BFF"/>
<path d="M2.91758 7.81435C2.53029 7.65393 2.08334 7.84543 1.97645 8.25077C1.68599 9.35215 1.64638 10.5266 1.89458 11.6849C1.98499 12.1068 2.44351 12.3151 2.84214 12.15L5.21676 11.1664C6.28571 10.7236 6.28571 9.20947 5.21676 8.7667L2.91758 7.81435Z" fill="#007BFF"/>
<path d="M3.07356 12.8574C2.68831 13.017 2.50704 13.4649 2.71385 13.827C3.32459 14.8963 4.17426 15.7664 5.16533 16.3968C5.52773 16.6273 5.99599 16.4498 6.16035 16.053L7.1976 13.5489C7.64037 12.4799 6.5697 11.4092 5.50076 11.852L3.07356 12.8574Z" fill="#007BFF"/>
<path d="M6.83046 16.3744C6.67004 16.7617 6.86154 17.2087 7.26688 17.3156C8.4318 17.6228 9.67846 17.6494 10.9013 17.3516C11.3134 17.2512 11.5117 16.7995 11.3494 16.4076L10.2829 13.8329C9.84014 12.7639 8.326 12.7639 7.88322 13.8329L6.83046 16.3744Z" fill="#007BFF"/>
<path d="M12.035 16.1236C12.1974 16.5155 12.657 16.6947 13.0194 16.4742C14.0946 15.8201 14.9574 14.9198 15.5639 13.8789C15.7749 13.5166 15.5943 13.0652 15.207 12.9048L12.6654 11.852C11.5964 11.4092 10.5258 12.4799 10.9685 13.5489L12.035 16.1236Z" fill="#007BFF"/>
<path d="M15.4535 12.2036C15.8503 12.368 16.3069 12.1624 16.4002 11.7432C16.6552 10.5966 16.6408 9.38058 16.3166 8.1926C16.2068 7.79033 15.7618 7.60175 15.3766 7.76132L12.9494 8.7667C11.8804 9.20947 11.8804 10.7236 12.9494 11.1664L15.4535 12.2036Z" fill="#007BFF"/>
<path d="M15.04 7.09747C15.4386 6.93236 15.6155 6.46082 15.3811 6.09856C14.7376 5.10404 13.8791 4.30158 12.895 3.72817C12.5328 3.51714 12.0813 3.69776 11.9209 4.08506L10.9685 6.38423C10.5258 7.45318 11.5964 8.52385 12.6654 8.08107L15.04 7.09747Z" fill="#007BFF"/>
<path d="M10.7593 2.89182C11.1785 2.98508 11.3841 3.4417 11.2197 3.83852L10.2829 6.10024C9.84014 7.16918 8.32599 7.16919 7.88322 6.10024L6.95873 3.86833C6.7964 3.47643 6.99468 3.02468 7.40683 2.92431C8.53152 2.65043 9.67639 2.65094 10.7593 2.89182Z" fill="#007BFF"/>
<path d="M21.0392 15.4844V3.84801H25.6301C26.5127 3.84801 27.2646 4.01657 27.8858 4.35369C28.507 4.68703 28.9805 5.15104 29.3062 5.74574C29.6358 6.33665 29.8006 7.01847 29.8006 7.79119C29.8006 8.56392 29.6339 9.24574 29.3006 9.83665C28.9672 10.4276 28.4843 10.8878 27.8517 11.2173C27.2229 11.5469 26.4615 11.7116 25.5676 11.7116H22.6415V9.74006H25.1699C25.6434 9.74006 26.0335 9.65862 26.3403 9.49574C26.6509 9.32907 26.882 9.09991 27.0335 8.80824C27.1888 8.51278 27.2665 8.17377 27.2665 7.79119C27.2665 7.40483 27.1888 7.06771 27.0335 6.77983C26.882 6.48816 26.6509 6.26278 26.3403 6.10369C26.0297 5.94081 25.6358 5.85938 25.1585 5.85938H23.4994V15.4844H21.0392ZM33.7736 10.4389V15.4844H31.3531V3.84801H33.7054V8.29688H33.8077C34.0046 7.78172 34.3228 7.37831 34.7622 7.08665C35.2016 6.79119 35.7527 6.64347 36.4156 6.64347C37.0217 6.64347 37.5501 6.77604 38.0008 7.04119C38.4554 7.30256 38.8077 7.67945 39.0577 8.17188C39.3115 8.66051 39.4365 9.24574 39.4327 9.92756V15.4844H37.0122V10.3594C37.016 9.8215 36.8796 9.40294 36.6031 9.10369C36.3304 8.80445 35.9478 8.65483 35.4554 8.65483C35.1258 8.65483 34.8342 8.72491 34.5804 8.86506C34.3304 9.00521 34.1334 9.20975 33.9895 9.47869C33.8493 9.74384 33.7774 10.0639 33.7736 10.4389ZM45.2807 15.6548C44.3981 15.6548 43.6348 15.4673 42.9909 15.0923C42.3507 14.7135 41.8564 14.187 41.5079 13.5128C41.1595 12.8348 40.9852 12.0488 40.9852 11.1548C40.9852 10.2533 41.1595 9.46544 41.5079 8.79119C41.8564 8.11316 42.3507 7.58665 42.9909 7.21165C43.6348 6.83286 44.3981 6.64347 45.2807 6.64347C46.1632 6.64347 46.9246 6.83286 47.5648 7.21165C48.2087 7.58665 48.7049 8.11316 49.0534 8.79119C49.4019 9.46544 49.5761 10.2533 49.5761 11.1548C49.5761 12.0488 49.4019 12.8348 49.0534 13.5128C48.7049 14.187 48.2087 14.7135 47.5648 15.0923C46.9246 15.4673 46.1632 15.6548 45.2807 15.6548ZM45.292 13.7798C45.6936 13.7798 46.0288 13.6662 46.2977 13.4389C46.5667 13.2079 46.7693 12.8935 46.9057 12.4957C47.0458 12.098 47.1159 11.6454 47.1159 11.1378C47.1159 10.6302 47.0458 10.1776 46.9057 9.77983C46.7693 9.3821 46.5667 9.06771 46.2977 8.83665C46.0288 8.60559 45.6936 8.49006 45.292 8.49006C44.8867 8.49006 44.5458 8.60559 44.2693 8.83665C43.9966 9.06771 43.7901 9.3821 43.65 9.77983C43.5136 10.1776 43.4454 10.6302 43.4454 11.1378C43.4454 11.6454 43.5136 12.098 43.65 12.4957C43.7901 12.8935 43.9966 13.2079 44.2693 13.4389C44.5458 13.6662 44.8867 13.7798 45.292 13.7798ZM55.792 6.7571V8.57528H50.5364V6.7571H55.792ZM51.7295 4.66619H54.15V12.8026C54.15 13.026 54.1841 13.2003 54.2523 13.3253C54.3204 13.4465 54.4151 13.5317 54.5364 13.581C54.6614 13.6302 54.8053 13.6548 54.9682 13.6548C55.0818 13.6548 55.1954 13.6454 55.3091 13.6264C55.4227 13.6037 55.5098 13.5866 55.5704 13.5753L55.9511 15.3764C55.8299 15.4143 55.6595 15.4579 55.4398 15.5071C55.2201 15.5601 54.953 15.5923 54.6386 15.6037C54.0553 15.6264 53.5439 15.5488 53.1045 15.3707C52.6689 15.1927 52.3299 14.9162 52.0875 14.5412C51.8451 14.1662 51.7257 13.6927 51.7295 13.1207V4.66619ZM61.2182 15.6548C60.3356 15.6548 59.5723 15.4673 58.9284 15.0923C58.2882 14.7135 57.7939 14.187 57.4454 13.5128C57.097 12.8348 56.9227 12.0488 56.9227 11.1548C56.9227 10.2533 57.097 9.46544 57.4454 8.79119C57.7939 8.11316 58.2882 7.58665 58.9284 7.21165C59.5723 6.83286 60.3356 6.64347 61.2182 6.64347C62.1007 6.64347 62.8621 6.83286 63.5023 7.21165C64.1462 7.58665 64.6424 8.11316 64.9909 8.79119C65.3394 9.46544 65.5136 10.2533 65.5136 11.1548C65.5136 12.0488 65.3394 12.8348 64.9909 13.5128C64.6424 14.187 64.1462 14.7135 63.5023 15.0923C62.8621 15.4673 62.1007 15.6548 61.2182 15.6548ZM61.2295 13.7798C61.6311 13.7798 61.9663 13.6662 62.2352 13.4389C62.5042 13.2079 62.7068 12.8935 62.8432 12.4957C62.9833 12.098 63.0534 11.6454 63.0534 11.1378C63.0534 10.6302 62.9833 10.1776 62.8432 9.77983C62.7068 9.3821 62.5042 9.06771 62.2352 8.83665C61.9663 8.60559 61.6311 8.49006 61.2295 8.49006C60.8242 8.49006 60.4833 8.60559 60.2068 8.83665C59.9341 9.06771 59.7276 9.3821 59.5875 9.77983C59.4511 10.1776 59.3829 10.6302 59.3829 11.1378C59.3829 11.6454 59.4511 12.098 59.5875 12.4957C59.7276 12.8935 59.9341 13.2079 60.2068 13.4389C60.4833 13.6662 60.8242 13.7798 61.2295 13.7798ZM73.4454 7.1946C73.4 6.73627 73.2049 6.38021 72.8602 6.12642C72.5155 5.87263 72.0477 5.74574 71.4568 5.74574C71.0553 5.74574 70.7163 5.80256 70.4398 5.91619C70.1632 6.02604 69.9511 6.17945 69.8034 6.37642C69.6595 6.57339 69.5875 6.79688 69.5875 7.04688C69.5799 7.25521 69.6235 7.43703 69.7182 7.59233C69.8167 7.74763 69.9511 7.8821 70.1216 7.99574C70.292 8.10559 70.489 8.20218 70.7125 8.28551C70.936 8.36506 71.1746 8.43324 71.4284 8.49006L72.4739 8.74006C72.9814 8.85369 73.4473 9.00521 73.8716 9.1946C74.2958 9.384 74.6632 9.61695 74.9739 9.89347C75.2845 10.17 75.525 10.4957 75.6954 10.8707C75.8697 11.2457 75.9587 11.6757 75.9625 12.1605C75.9587 12.8726 75.7769 13.4901 75.417 14.0128C75.061 14.5317 74.5458 14.9351 73.8716 15.223C73.2011 15.5071 72.3924 15.6491 71.4454 15.6491C70.5061 15.6491 69.6879 15.5052 68.9909 15.2173C68.2977 14.9295 67.7561 14.5033 67.3659 13.9389C66.9795 13.3707 66.7769 12.6681 66.7579 11.831H69.1386C69.1651 12.2211 69.2769 12.5469 69.4739 12.8082C69.6746 13.0658 69.9417 13.2609 70.275 13.3935C70.6121 13.5223 70.9928 13.5866 71.417 13.5866C71.8337 13.5866 72.1954 13.526 72.5023 13.4048C72.8129 13.2836 73.0534 13.1151 73.2239 12.8991C73.3943 12.6832 73.4795 12.4351 73.4795 12.1548C73.4795 11.8935 73.4019 11.6738 73.2466 11.4957C73.0951 11.3177 72.8716 11.1662 72.5761 11.0412C72.2845 10.9162 71.9265 10.8026 71.5023 10.7003L70.2352 10.3821C69.2542 10.1435 68.4795 9.77036 67.9114 9.26278C67.3432 8.75521 67.061 8.0715 67.0648 7.21165C67.061 6.5071 67.2485 5.89157 67.6273 5.36506C68.0098 4.83854 68.5345 4.42756 69.2011 4.1321C69.8678 3.83665 70.6254 3.68892 71.4739 3.68892C72.3375 3.68892 73.0913 3.83665 73.7352 4.1321C74.3829 4.42756 74.8867 4.83854 75.2466 5.36506C75.6064 5.89157 75.792 6.50142 75.8034 7.1946H73.4454ZM81.515 15.6548C80.6325 15.6548 79.8692 15.4673 79.2253 15.0923C78.5851 14.7135 78.0908 14.187 77.7423 13.5128C77.3938 12.8348 77.2196 12.0488 77.2196 11.1548C77.2196 10.2533 77.3938 9.46544 77.7423 8.79119C78.0908 8.11316 78.5851 7.58665 79.2253 7.21165C79.8692 6.83286 80.6325 6.64347 81.515 6.64347C82.3976 6.64347 83.159 6.83286 83.7991 7.21165C84.4431 7.58665 84.9393 8.11316 85.2878 8.79119C85.6363 9.46544 85.8105 10.2533 85.8105 11.1548C85.8105 12.0488 85.6363 12.8348 85.2878 13.5128C84.9393 14.187 84.4431 14.7135 83.7991 15.0923C83.159 15.4673 82.3976 15.6548 81.515 15.6548ZM81.5264 13.7798C81.9279 13.7798 82.2632 13.6662 82.5321 13.4389C82.801 13.2079 83.0037 12.8935 83.14 12.4957C83.2802 12.098 83.3503 11.6454 83.3503 11.1378C83.3503 10.6302 83.2802 10.1776 83.14 9.77983C83.0037 9.3821 82.801 9.06771 82.5321 8.83665C82.2632 8.60559 81.9279 8.49006 81.5264 8.49006C81.1211 8.49006 80.7802 8.60559 80.5037 8.83665C80.231 9.06771 80.0245 9.3821 79.8844 9.77983C79.748 10.1776 79.6798 10.6302 79.6798 11.1378C79.6798 11.6454 79.748 12.098 79.8844 12.4957C80.0245 12.8935 80.231 13.2079 80.5037 13.4389C80.7802 13.6662 81.1211 13.7798 81.5264 13.7798ZM89.8048 3.84801V15.4844H87.3844V3.84801H89.8048ZM99.8801 6.7571L96.829 15.4844H94.1017L91.0506 6.7571H93.6074L95.4199 13.0014H95.5108L97.3176 6.7571H99.8801ZM104.815 15.6548C103.917 15.6548 103.144 15.473 102.497 15.1094C101.853 14.742 101.356 14.223 101.008 13.5526C100.659 12.8783 100.485 12.081 100.485 11.1605C100.485 10.2628 100.659 9.47491 101.008 8.79688C101.356 8.11884 101.847 7.59044 102.48 7.21165C103.116 6.83286 103.862 6.64347 104.718 6.64347C105.294 6.64347 105.83 6.73627 106.326 6.92188C106.826 7.10369 107.262 7.37831 107.633 7.74574C108.008 8.11316 108.3 8.57528 108.508 9.1321C108.716 9.68513 108.82 10.3329 108.82 11.0753V11.7401H101.451V10.2401H106.542C106.542 9.89157 106.466 9.58286 106.315 9.31392C106.163 9.04498 105.953 8.83475 105.684 8.68324C105.419 8.52794 105.11 8.45028 104.758 8.45028C104.391 8.45028 104.065 8.53551 103.781 8.70597C103.5 8.87263 103.281 9.09801 103.122 9.3821C102.962 9.66241 102.881 9.97491 102.877 10.3196V11.7457C102.877 12.1776 102.957 12.5507 103.116 12.8651C103.279 13.1795 103.508 13.4219 103.803 13.5923C104.099 13.7628 104.449 13.848 104.855 13.848C105.123 13.848 105.37 13.8101 105.593 13.7344C105.817 13.6586 106.008 13.545 106.167 13.3935C106.326 13.242 106.447 13.0563 106.531 12.8366L108.769 12.9844C108.656 13.5223 108.423 13.992 108.07 14.3935C107.722 14.7912 107.271 15.1018 106.718 15.3253C106.169 15.545 105.534 15.6548 104.815 15.6548Z" fill="url(#paint0_linear_2517_12524)"/>
<defs>
<linearGradient id="paint0_linear_2517_12524" x1="19.731" y1="0.484375" x2="110.63" y2="7.06175" gradientUnits="userSpaceOnUse">
<stop stop-color="#007BFF"/>
<stop offset="1" stop-color="#1EADFF"/>
</linearGradient>
</defs>
</svg>
