<svg width="24" height="24" viewBox="0 0 24 24" fill="none" xmlns="http://www.w3.org/2000/svg">
<path fill-rule="evenodd" clip-rule="evenodd" d="M22.75 12C22.75 6.06294 17.9371 1.25 12 1.25C6.06294 1.25 1.25 6.06294 1.25 12C1.25 13.7183 1.65371 15.3445 2.37213 16.7869C2.47933 17.0021 2.50208 17.2219 2.4526 17.4068L1.857 19.6328C1.44927 21.1566 2.84337 22.5507 4.3672 22.143L6.59324 21.5474C6.77814 21.4979 6.99791 21.5207 7.21315 21.6279C8.65553 22.3463 10.2817 22.75 12 22.75C17.9371 22.75 22.75 17.9371 22.75 12ZM12 2.75C17.1086 2.75 21.25 6.89137 21.25 12C21.25 17.1086 17.1086 21.25 12 21.25C10.5189 21.25 9.12121 20.9025 7.88191 20.2852C7.38451 20.0375 6.78973 19.9421 6.20553 20.0984L3.97949 20.694C3.57066 20.8034 3.19663 20.4293 3.30602 20.0205L3.90163 17.7945C4.05794 17.2103 3.96254 16.6155 3.7148 16.1181C3.09752 14.8788 2.75 13.4811 2.75 12C2.75 6.89137 6.89137 2.75 12 2.75Z" fill="#6DC1E8"/>
<path fill-rule="evenodd" clip-rule="evenodd" d="M12.25 8C12.6642 8 13 8.33579 13 8.75V11.5H15.75C16.1642 11.5 16.5 11.8358 16.5 12.25C16.5 12.6642 16.1642 13 15.75 13H13V15.75C13 16.1642 12.6642 16.5 12.25 16.5C11.8358 16.5 11.5 16.1642 11.5 15.75V13H8.75C8.33579 13 8 12.6642 8 12.25C8 11.8358 8.33579 11.5 8.75 11.5H11.5V8.75C11.5 8.33579 11.8358 8 12.25 8Z" fill="#6DC1E8"/>
</svg>
