<svg width="25" height="24" viewBox="0 0 25 24" fill="none" xmlns="http://www.w3.org/2000/svg">
<path fill-rule="evenodd" clip-rule="evenodd" d="M15.624 4.88448C15.6368 4.89591 15.6497 4.90736 15.6626 4.91884L19.6765 8.48668C20.4254 9.15237 21.0463 9.70422 21.4726 10.2052C21.9206 10.7317 22.2396 11.2985 22.2396 12C22.2396 12.7014 21.9206 13.2683 21.4726 13.7948C21.0463 14.2957 20.4254 14.8476 19.6765 15.5132L15.6626 19.0811C15.6497 19.0926 15.6368 19.104 15.624 19.1155C15.2996 19.4039 14.9968 19.6732 14.7352 19.8459C14.4783 20.0155 14.0112 20.2618 13.4879 20.0268C12.9647 19.7919 12.8385 19.2791 12.7946 18.9744C12.7499 18.6641 12.7499 18.259 12.75 17.8248C12.75 17.8076 12.75 17.7904 12.75 17.7731V16.2046C11.2985 16.3046 9.82763 16.6901 8.54102 17.317C7.02808 18.0542 5.81979 19.0996 5.16405 20.3486C5.00365 20.6541 4.6555 20.8108 4.32047 20.7282C3.98544 20.6456 3.75 20.345 3.75 20C3.75 15.279 5.13138 12.205 7.1065 10.3152C8.8281 8.66796 10.9264 7.99203 12.75 7.85058V6.22681C12.75 6.20953 12.75 6.19229 12.75 6.17509C12.7499 5.74096 12.7499 5.33579 12.7946 5.02554C12.8385 4.72086 12.9647 4.20807 13.4879 3.97309C14.0112 3.7381 14.4783 3.98446 14.7352 4.15407C14.9968 4.32677 15.2996 4.59601 15.624 4.88448ZM14.2531 5.67693C14.3661 5.77382 14.5011 5.89333 14.6661 6.03996L18.6384 9.57088C19.4395 10.283 19.98 10.7658 20.3302 11.1773C20.6665 11.5725 20.7396 11.8033 20.7396 12C20.7396 12.1967 20.6665 12.4275 20.3302 12.8227C19.98 13.2342 19.4395 13.717 18.6384 14.429L14.6661 17.96C14.5011 18.1066 14.3661 18.2261 14.2531 18.323C14.2504 18.1741 14.25 17.9938 14.25 17.7731V15.4285C14.25 15.0143 13.9142 14.6785 13.5 14.6785C11.5874 14.6785 9.59995 15.1325 7.88398 15.9686C6.96516 16.4163 6.1098 16.981 5.38393 17.6568C5.75269 14.6098 6.84242 12.6439 8.1435 11.399C9.76355 9.84893 11.8104 9.32139 13.5 9.32139C13.9142 9.32139 14.25 8.98561 14.25 8.57139V6.22681C14.25 6.00611 14.2504 5.82581 14.2531 5.67693Z" fill="white"/>
</svg>
