<svg width="28" height="28" viewBox="0 0 28 28" fill="none" xmlns="http://www.w3.org/2000/svg">
<path fill-rule="evenodd" clip-rule="evenodd" d="M5.83325 1.45801C6.3165 1.45801 6.70825 1.84976 6.70825 2.33301V12.833C6.70825 15.0576 6.71011 16.6381 6.8713 17.837C7.02911 19.0108 7.32506 19.687 7.81881 20.1808C8.31255 20.6745 8.9888 20.9705 10.1626 21.1283C11.3615 21.2895 12.942 21.2913 15.1666 21.2913H25.6666C26.1498 21.2913 26.5416 21.6831 26.5416 22.1663C26.5416 22.6496 26.1498 23.0413 25.6666 23.0413H23.0416V25.6663C23.0416 26.1496 22.6498 26.5413 22.1666 26.5413C21.6833 26.5413 21.2916 26.1496 21.2916 25.6663V23.0413H15.1008C12.9567 23.0414 11.2585 23.0414 9.92939 22.8627C8.56157 22.6788 7.45446 22.2913 6.58137 21.4182C5.70828 20.5451 5.32081 19.438 5.13691 18.0702C4.95822 16.7411 4.95823 15.0429 4.95825 12.8988L4.95825 6.70801H2.33325C1.85 6.70801 1.45825 6.31626 1.45825 5.83301C1.45825 5.34976 1.85 4.95801 2.33325 4.95801H4.95825V2.33301C4.95825 1.84976 5.35 1.45801 5.83325 1.45801ZM17.8373 6.87106C16.6383 6.70987 15.0579 6.70801 12.8333 6.70801H9.33325C8.85 6.70801 8.45825 6.31626 8.45825 5.83301C8.45825 5.34976 8.85 4.95801 9.33325 4.95801L12.8991 4.95801C15.0431 4.95799 16.7414 4.95797 18.0704 5.13666C19.4383 5.32056 20.5454 5.70803 21.4185 6.58112C22.2916 7.45422 22.679 8.56132 22.8629 9.92915C23.0416 11.2582 23.0416 12.9565 23.0416 15.1005V18.6663C23.0416 19.1496 22.6498 19.5413 22.1666 19.5413C21.6833 19.5413 21.2916 19.1496 21.2916 18.6663V15.1663C21.2916 12.9417 21.2897 11.3613 21.1285 10.1623C20.9707 8.98856 20.6748 8.31231 20.181 7.81856C19.6873 7.32482 19.011 7.02887 17.8373 6.87106Z" fill="#007BFF"/>
<path d="M9.91659 13.4163C9.91659 11.7664 9.91659 10.9415 10.4291 10.4289C10.9417 9.91634 11.7667 9.91634 13.4166 9.91634H14.5833C16.2332 9.91634 17.0581 9.91634 17.5707 10.4289C18.0833 10.9415 18.0833 11.7664 18.0833 13.4163V14.583C18.0833 16.2329 18.0833 17.0579 17.5707 17.5704C17.0581 18.083 16.2332 18.083 14.5833 18.083H13.4166C11.7667 18.083 10.9417 18.083 10.4291 17.5704C9.91659 17.0579 9.91659 16.2329 9.91659 14.583V13.4163Z" fill="#007BFF"/>
</svg>
