<svg width="40" height="40" viewBox="0 0 40 40" fill="none" xmlns="http://www.w3.org/2000/svg">
<rect width="40" height="40" rx="20" fill="#E1EEFF"/>
<path d="M12.9941 11.9062C12.7382 11.9062 12.4706 11.9923 12.2753 12.1873C11.8848 12.5783 11.8848 13.2342 12.2753 13.6252L18.5566 19.9062L12.2753 26.1873C11.8848 26.5783 11.8848 27.2342 12.2753 27.6252C12.6659 28.0152 13.3223 28.0152 13.7129 27.6252L19.9941 21.3443L26.2753 27.6252C26.6659 28.0152 27.3223 28.0152 27.7129 27.6252C28.1034 27.2342 28.1034 26.5783 27.7129 26.1873L21.4316 19.9062L27.7129 13.6252C28.1034 13.2342 28.1034 12.5783 27.7129 12.1873C27.5176 11.9923 27.2499 11.9062 26.9941 11.9062C26.7382 11.9062 26.4707 11.9923 26.2753 12.1873L19.9941 18.4682L13.7129 12.1873C13.5176 11.9923 13.25 11.9062 12.9941 11.9062Z" fill="#007BFF"/>
</svg>
