<svg width="40" height="40" viewBox="0 0 40 40" fill="none" xmlns="http://www.w3.org/2000/svg">
<rect width="40" height="40" rx="20" fill="#E1EEFF"/>
<path d="M20.0422 9.99902C14.5042 9.99902 10.0142 14.475 10.0142 19.997C10.0142 25.519 14.5042 29.996 20.0422 29.996C22.7452 29.996 25.2872 28.93 27.1562 27.059C27.5472 26.667 27.5492 26.042 27.1562 25.653C26.7642 25.263 26.1372 25.261 25.7462 25.653C24.2502 27.151 22.2062 27.996 20.0422 27.996C15.6122 27.996 12.0202 24.415 12.0202 19.997C12.0202 15.58 15.6122 11.999 20.0422 11.999C20.5962 11.999 21.0452 11.551 21.0452 10.999C21.0452 10.447 20.5962 9.99902 20.0422 9.99902ZM23.7092 10.905C23.4662 10.985 23.2672 11.157 23.1452 11.405C22.9012 11.901 23.0872 12.505 23.5842 12.749C23.8512 12.879 24.0862 13.026 24.3362 13.186C24.8022 13.483 25.4482 13.339 25.7462 12.874C26.0442 12.408 25.8992 11.796 25.4332 11.499C25.1192 11.299 24.7952 11.131 24.4612 10.968C24.2132 10.846 23.9532 10.826 23.7092 10.905ZM27.2502 13.373C26.9962 13.343 26.7162 13.422 26.4982 13.592C26.0632 13.933 25.9992 14.564 26.3422 14.998C26.5252 15.231 26.7171 15.465 26.8741 15.717C27.1661 16.186 27.7832 16.3201 28.2532 16.0291C28.7242 15.7381 28.8582 15.155 28.5672 14.686C28.3712 14.371 28.1382 14.04 27.9082 13.748C27.7372 13.531 27.5052 13.404 27.2502 13.373ZM20.0422 13.998C19.4892 13.998 19.0402 14.446 19.0402 14.998V19.997C19.0402 20.263 19.1652 20.528 19.3532 20.716L22.3611 23.715C22.7531 24.106 23.3802 24.106 23.7722 23.715C24.1632 23.325 24.1632 22.669 23.7722 22.278L21.0452 19.56V14.998C21.0452 14.446 20.5962 13.998 20.0422 13.998ZM28.6292 17.0291C28.0882 17.1481 27.7572 17.677 27.8772 18.216C27.9412 18.505 28.0032 18.796 28.0342 19.091C28.0922 19.64 28.5802 20.024 29.1312 19.966C29.6812 19.908 30.0672 19.422 30.0082 18.873C29.9692 18.503 29.9322 18.1401 29.8512 17.7791C29.7322 17.2401 29.1702 16.9101 28.6292 17.0291ZM29.0681 21.091C28.5301 20.961 27.9762 21.304 27.8462 21.841C27.7762 22.13 27.6651 22.407 27.5641 22.684C27.3741 23.203 27.6702 23.745 28.1912 23.934C28.7112 24.123 29.2552 23.891 29.4442 23.372C29.5712 23.024 29.7012 22.671 29.7892 22.309C29.9192 21.773 29.6061 21.221 29.0681 21.091Z" fill="#007BFF"/>
</svg>
