<svg width="24" height="24" viewBox="0 0 24 24" fill="none" xmlns="http://www.w3.org/2000/svg">
<path d="M12.0422 1.99902C6.50418 1.99902 2.01416 6.47501 2.01416 11.997C2.01416 17.519 6.50418 21.996 12.0422 21.996C14.7452 21.996 17.2872 20.93 19.1562 19.059C19.5472 18.667 19.5492 18.042 19.1562 17.653C18.7642 17.263 18.1372 17.261 17.7462 17.653C16.2502 19.151 14.2062 19.996 12.0422 19.996C7.61218 19.996 4.02017 16.415 4.02017 11.997C4.02017 7.58001 7.61218 3.99902 12.0422 3.99902C12.5962 3.99902 13.0452 3.55102 13.0452 2.99902C13.0452 2.44702 12.5962 1.99902 12.0422 1.99902ZM15.7092 2.90503C15.4662 2.98503 15.2672 3.15703 15.1452 3.40503C14.9012 3.90103 15.0872 4.50502 15.5842 4.74902C15.8512 4.87902 16.0862 5.02603 16.3362 5.18603C16.8022 5.48303 17.4482 5.33902 17.7462 4.87402C18.0442 4.40802 17.8992 3.79602 17.4332 3.49902C17.1192 3.29902 16.7952 3.13102 16.4612 2.96802C16.2132 2.84602 15.9532 2.82603 15.7092 2.90503ZM19.2502 5.37305C18.9962 5.34305 18.7162 5.42204 18.4982 5.59204C18.0632 5.93304 17.9992 6.56405 18.3422 6.99805C18.5252 7.23105 18.7171 7.46504 18.8741 7.71704C19.1661 8.18604 19.7832 8.32005 20.2532 8.02905C20.7242 7.73805 20.8582 7.15503 20.5672 6.68603C20.3712 6.37103 20.1382 6.04005 19.9082 5.74805C19.7372 5.53105 19.5052 5.40405 19.2502 5.37305ZM12.0422 5.99805C11.4892 5.99805 11.0402 6.44605 11.0402 6.99805V11.997C11.0402 12.263 11.1651 12.528 11.3531 12.716L14.3611 15.715C14.7531 16.106 15.3802 16.106 15.7722 15.715C16.1632 15.325 16.1632 14.669 15.7722 14.278L13.0452 11.56V6.99805C13.0452 6.44605 12.5962 5.99805 12.0422 5.99805ZM20.6292 9.02905C20.0882 9.14805 19.7572 9.677 19.8772 10.216C19.9412 10.505 20.0031 10.796 20.0341 11.091C20.0921 11.64 20.5802 12.024 21.1312 11.966C21.6812 11.908 22.0671 11.422 22.0081 10.873C21.9691 10.503 21.9322 10.1401 21.8512 9.77905C21.7322 9.24005 21.1702 8.91005 20.6292 9.02905ZM21.0681 13.091C20.5301 12.961 19.9762 13.304 19.8462 13.841C19.7762 14.13 19.6651 14.407 19.5641 14.684C19.3741 15.203 19.6702 15.745 20.1912 15.934C20.7112 16.123 21.2552 15.891 21.4442 15.372C21.5712 15.024 21.7012 14.671 21.7892 14.309C21.9192 13.773 21.6061 13.221 21.0681 13.091Z" fill="#6DC1E8"/>
</svg>
