<svg width="25" height="24" viewBox="0 0 25 24" fill="none" xmlns="http://www.w3.org/2000/svg">
<g filter="url(#filter0_iii_2517_12747)">
<rect x="13.5605" y="17.1504" width="5.63477" height="9.15648" rx="2.81738" transform="rotate(-45 13.5605 17.1504)" fill="url(#paint0_linear_2517_12747)"/>
<rect x="13.5605" y="17.1504" width="5.63477" height="9.15648" rx="2.81738" transform="rotate(-45 13.5605 17.1504)" fill="url(#paint1_linear_2517_12747)"/>
<rect x="13.5605" y="17.1504" width="5.63477" height="9.15648" rx="2.81738" transform="rotate(-45 13.5605 17.1504)" fill="url(#paint2_linear_2517_12747)"/>
</g>
<rect x="13.5605" y="17.1504" width="5.63477" height="9.15648" rx="2.81738" transform="rotate(-45 13.5605 17.1504)" fill="url(#paint3_radial_2517_12747)"/>
<path fill-rule="evenodd" clip-rule="evenodd" d="M10.1797 17.8477C14.6584 17.8477 18.2891 14.217 18.2891 9.73828C18.2891 5.25959 14.6584 1.62891 10.1797 1.62891C5.701 1.62891 2.07031 5.25959 2.07031 9.73828C2.07031 14.217 5.701 17.8477 10.1797 17.8477ZM10.1797 16.5352C13.9335 16.5352 16.9766 13.4921 16.9766 9.73828C16.9766 5.98448 13.9335 2.94141 10.1797 2.94141C6.42589 2.94141 3.38281 5.98448 3.38281 9.73828C3.38281 13.4921 6.42589 16.5352 10.1797 16.5352Z" fill="url(#paint4_linear_2517_12747)"/>
<g filter="url(#filter1_f_2517_12747)">
<path fill-rule="evenodd" clip-rule="evenodd" d="M10.1796 17.6645C14.5571 17.6645 18.1056 14.1159 18.1056 9.73849C18.1056 5.36108 14.5571 1.8125 10.1796 1.8125C5.80224 1.8125 2.25366 5.36108 2.25366 9.73849C2.25366 14.1159 5.80224 17.6645 10.1796 17.6645ZM10.1796 16.3817C13.8486 16.3817 16.8228 13.4074 16.8228 9.73849C16.8228 6.06958 13.8486 3.09532 10.1796 3.09532C6.51074 3.09532 3.53648 6.06958 3.53648 9.73849C3.53648 13.4074 6.51074 16.3817 10.1796 16.3817Z" fill="url(#paint5_linear_2517_12747)"/>
<path fill-rule="evenodd" clip-rule="evenodd" d="M10.1796 17.6645C14.5571 17.6645 18.1056 14.1159 18.1056 9.73849C18.1056 5.36108 14.5571 1.8125 10.1796 1.8125C5.80224 1.8125 2.25366 5.36108 2.25366 9.73849C2.25366 14.1159 5.80224 17.6645 10.1796 17.6645ZM10.1796 16.3817C13.8486 16.3817 16.8228 13.4074 16.8228 9.73849C16.8228 6.06958 13.8486 3.09532 10.1796 3.09532C6.51074 3.09532 3.53648 6.06958 3.53648 9.73849C3.53648 13.4074 6.51074 16.3817 10.1796 16.3817Z" fill="url(#paint6_radial_2517_12747)"/>
</g>
<g filter="url(#filter2_f_2517_12747)">
<circle cx="10.1798" cy="9.73838" r="6.97129" fill="url(#paint7_linear_2517_12747)"/>
</g>
<g filter="url(#filter3_ii_2517_12747)">
<circle cx="10.1797" cy="9.73828" r="6.79688" fill="#64D0EA"/>
</g>
<ellipse cx="13.2423" cy="6.3317" rx="1.23843" ry="1.52507" transform="rotate(-38.8957 13.2423 6.3317)" fill="url(#paint8_linear_2517_12747)"/>
<defs>
<filter id="filter0_iii_2517_12747" x="13.7275" y="14.083" width="9.125" height="9.375" filterUnits="userSpaceOnUse" color-interpolation-filters="sRGB">
<feFlood flood-opacity="0" result="BackgroundImageFix"/>
<feBlend mode="normal" in="SourceGraphic" in2="BackgroundImageFix" result="shape"/>
<feColorMatrix in="SourceAlpha" type="matrix" values="0 0 0 0 0 0 0 0 0 0 0 0 0 0 0 0 0 0 127 0" result="hardAlpha"/>
<feOffset dx="-1" dy="1"/>
<feGaussianBlur stdDeviation="1.5"/>
<feComposite in2="hardAlpha" operator="arithmetic" k2="-1" k3="1"/>
<feColorMatrix type="matrix" values="0 0 0 0 0.4 0 0 0 0 0.239216 0 0 0 0 0.439216 0 0 0 1 0"/>
<feBlend mode="normal" in2="shape" result="effect1_innerShadow_2517_12747"/>
<feColorMatrix in="SourceAlpha" type="matrix" values="0 0 0 0 0 0 0 0 0 0 0 0 0 0 0 0 0 0 127 0" result="hardAlpha"/>
<feOffset dy="-0.25"/>
<feGaussianBlur stdDeviation="0.375"/>
<feComposite in2="hardAlpha" operator="arithmetic" k2="-1" k3="1"/>
<feColorMatrix type="matrix" values="0 0 0 0 0.639216 0 0 0 0 0.490196 0 0 0 0 0.643137 0 0 0 1 0"/>
<feBlend mode="normal" in2="effect1_innerShadow_2517_12747" result="effect2_innerShadow_2517_12747"/>
<feColorMatrix in="SourceAlpha" type="matrix" values="0 0 0 0 0 0 0 0 0 0 0 0 0 0 0 0 0 0 127 0" result="hardAlpha"/>
<feOffset dy="1"/>
<feGaussianBlur stdDeviation="0.75"/>
<feComposite in2="hardAlpha" operator="arithmetic" k2="-1" k3="1"/>
<feColorMatrix type="matrix" values="0 0 0 0 0.333333 0 0 0 0 0.27451 0 0 0 0 0.380392 0 0 0 1 0"/>
<feBlend mode="normal" in2="effect2_innerShadow_2517_12747" result="effect3_innerShadow_2517_12747"/>
</filter>
<filter id="filter1_f_2517_12747" x="1.95366" y="1.5125" width="16.4521" height="16.4521" filterUnits="userSpaceOnUse" color-interpolation-filters="sRGB">
<feFlood flood-opacity="0" result="BackgroundImageFix"/>
<feBlend mode="normal" in="SourceGraphic" in2="BackgroundImageFix" result="shape"/>
<feGaussianBlur stdDeviation="0.15" result="effect1_foregroundBlur_2517_12747"/>
</filter>
<filter id="filter2_f_2517_12747" x="3.0085" y="2.56709" width="14.3426" height="14.3424" filterUnits="userSpaceOnUse" color-interpolation-filters="sRGB">
<feFlood flood-opacity="0" result="BackgroundImageFix"/>
<feBlend mode="normal" in="SourceGraphic" in2="BackgroundImageFix" result="shape"/>
<feGaussianBlur stdDeviation="0.1" result="effect1_foregroundBlur_2517_12747"/>
</filter>
<filter id="filter3_ii_2517_12747" x="3.38281" y="2.79141" width="13.5938" height="14.7438" filterUnits="userSpaceOnUse" color-interpolation-filters="sRGB">
<feFlood flood-opacity="0" result="BackgroundImageFix"/>
<feBlend mode="normal" in="SourceGraphic" in2="BackgroundImageFix" result="shape"/>
<feColorMatrix in="SourceAlpha" type="matrix" values="0 0 0 0 0 0 0 0 0 0 0 0 0 0 0 0 0 0 127 0" result="hardAlpha"/>
<feOffset dy="1"/>
<feGaussianBlur stdDeviation="1"/>
<feComposite in2="hardAlpha" operator="arithmetic" k2="-1" k3="1"/>
<feColorMatrix type="matrix" values="0 0 0 0 0.168627 0 0 0 0 0.603922 0 0 0 0 0.956863 0 0 0 1 0"/>
<feBlend mode="normal" in2="shape" result="effect1_innerShadow_2517_12747"/>
<feColorMatrix in="SourceAlpha" type="matrix" values="0 0 0 0 0 0 0 0 0 0 0 0 0 0 0 0 0 0 127 0" result="hardAlpha"/>
<feOffset dy="-0.15"/>
<feGaussianBlur stdDeviation="0.15"/>
<feComposite in2="hardAlpha" operator="arithmetic" k2="-1" k3="1"/>
<feColorMatrix type="matrix" values="0 0 0 0 0.137255 0 0 0 0 0.607843 0 0 0 0 0.984314 0 0 0 1 0"/>
<feBlend mode="normal" in2="effect1_innerShadow_2517_12747" result="effect2_innerShadow_2517_12747"/>
</filter>
<linearGradient id="paint0_linear_2517_12747" x1="14.0329" y1="24.923" x2="17.2811" y2="18.5259" gradientUnits="userSpaceOnUse">
<stop stop-color="#A0659C"/>
<stop offset="1" stop-color="#895792"/>
</linearGradient>
<linearGradient id="paint1_linear_2517_12747" x1="16.3696" y1="17.5481" x2="16.3779" y2="20.7633" gradientUnits="userSpaceOnUse">
<stop stop-color="#6C3B74"/>
<stop offset="1" stop-color="#845590" stop-opacity="0"/>
</linearGradient>
<linearGradient id="paint2_linear_2517_12747" x1="19.2699" y1="23.3983" x2="15.4084" y2="23.2823" gradientUnits="userSpaceOnUse">
<stop offset="0.115168" stop-color="#703D7A"/>
<stop offset="1" stop-color="#703D7A" stop-opacity="0"/>
</linearGradient>
<radialGradient id="paint3_radial_2517_12747" cx="0" cy="0" r="1" gradientUnits="userSpaceOnUse" gradientTransform="translate(16.4111 17.0095) rotate(92.4424) scale(1.75002 4.06714)">
<stop stop-color="#2F1A3D"/>
<stop offset="1" stop-color="#532D64" stop-opacity="0"/>
</radialGradient>
<linearGradient id="paint4_linear_2517_12747" x1="10.1797" y1="1.62891" x2="10.1797" y2="17.8477" gradientUnits="userSpaceOnUse">
<stop offset="0.378529" stop-color="#344A7D"/>
<stop offset="0.633316" stop-color="#785790"/>
<stop offset="0.837142" stop-color="#785790"/>
<stop offset="1" stop-color="#9872A2"/>
</linearGradient>
<linearGradient id="paint5_linear_2517_12747" x1="10.1796" y1="1.8125" x2="10.1796" y2="17.6645" gradientUnits="userSpaceOnUse">
<stop stop-color="#475890"/>
<stop offset="1" stop-color="#7A4D87"/>
</linearGradient>
<radialGradient id="paint6_radial_2517_12747" cx="0" cy="0" r="1" gradientUnits="userSpaceOnUse" gradientTransform="translate(10.1797 5.55488) rotate(-90.0001) scale(3.84375 7.14842)">
<stop offset="0.704268" stop-color="#566298"/>
<stop offset="0.786585" stop-color="#566298" stop-opacity="0"/>
</radialGradient>
<linearGradient id="paint7_linear_2517_12747" x1="10.1798" y1="2.76709" x2="10.1798" y2="16.7097" gradientUnits="userSpaceOnUse">
<stop stop-color="#204083"/>
<stop offset="1" stop-color="#523573"/>
</linearGradient>
<linearGradient id="paint8_linear_2517_12747" x1="13.2423" y1="4.80662" x2="13.2423" y2="7.85677" gradientUnits="userSpaceOnUse">
<stop stop-color="#DCDBF2"/>
<stop offset="0.209118" stop-color="#DCDBF2" stop-opacity="0.84797"/>
<stop offset="1" stop-color="#DCDBF2" stop-opacity="0"/>
</linearGradient>
</defs>
</svg>
