<svg width="24" height="25" viewBox="0 0 24 25" fill="none" xmlns="http://www.w3.org/2000/svg">
<path opacity="0.986784" d="M16.9983 2.45312C16.7333 2.45312 16.4673 2.54713 16.2793 2.73413C14.7793 4.23413 14.7793 4.23413 14.2793 4.73413L7.2793 11.7341C7.0923 11.9221 6.99829 12.1881 6.99829 12.4531V16.4531C6.99829 17.0051 7.44629 17.4531 7.99829 17.4531C8.49829 17.4531 11.4983 17.4531 11.9983 17.4531C12.2633 17.4531 12.5293 17.3591 12.7173 17.1721L19.7173 10.1721C20.2173 9.67212 20.2173 9.67212 21.7173 8.17212C21.9043 7.98412 21.9983 7.71812 21.9983 7.45312C21.9983 5.81712 21.5813 4.64814 20.7173 3.76514C19.8443 2.87514 18.6793 2.45312 16.9983 2.45312ZM6.99829 3.45312C4.78929 3.45312 2.99829 5.24412 2.99829 7.45312V17.4531C2.99829 19.6621 4.78929 21.4531 6.99829 21.4531H16.9983C19.2073 21.4531 20.9983 19.6621 20.9983 17.4531V13.4531C20.9983 12.9011 20.5503 12.4531 19.9983 12.4531C19.4463 12.4531 18.9983 12.9011 18.9983 13.4531V17.4531C18.9983 18.5581 18.1033 19.4531 16.9983 19.4531H6.99829C5.89329 19.4531 4.99829 18.5581 4.99829 17.4531V7.45312C4.99829 6.34812 5.89329 5.45312 6.99829 5.45312H10.9983C11.5503 5.45312 11.9983 5.00513 11.9983 4.45312C11.9983 3.90112 11.5503 3.45312 10.9983 3.45312H6.99829ZM17.4053 4.47211C18.3073 4.52511 18.8783 4.73111 19.2793 5.14111C19.6893 5.55911 19.9253 6.19013 19.9803 7.07513C19.4913 7.56413 19.1883 7.85414 19.0023 8.04114C18.2093 7.24914 17.2033 6.25211 16.4113 5.45911C16.5983 5.27211 16.9163 4.96111 17.4053 4.47211ZM15.0003 6.87915L17.5853 9.45715L11.5603 15.4531C10.9283 15.4531 9.91929 15.4531 8.99829 15.4531V12.8911L15.0003 6.87915Z" fill="#515151"/>
</svg>
