<svg width="86" height="54" viewBox="0 0 86 54" fill="none" xmlns="http://www.w3.org/2000/svg">
<rect x="0.484375" y="0.984375" width="85.0312" height="52.0312" rx="26.0156" fill="#064187" fill-opacity="0.7"/>
<rect x="12.4844" y="8.98438" width="36.0312" height="36.0312" rx="18.0156" fill="white"/>
<mask id="mask0_2517_12554" style="mask-type:alpha" maskUnits="userSpaceOnUse" x="19" y="15" width="24" height="24">
<path d="M32.3732 17.4791L25.079 27.9033C24.8841 28.1808 25.0451 28.4995 25.3749 28.4995H28.3749C28.6373 28.4995 28.7499 28.6045 28.7499 28.8745L28.7499 36.9467C28.7499 37.4791 29.3946 37.7116 29.702 37.2841L36.9162 27.6633C37.1186 27.3859 36.9548 26.9995 36.6249 26.9995C36.6249 26.9995 34.3749 26.9995 33.9999 26.9995C33.6249 26.9995 33.2499 26.6245 33.2499 26.2495C33.2499 25.8745 33.25 17.9995 33.2499 17.6245C33.2499 17.2495 32.6806 17.0442 32.3732 17.4791Z" fill="#212121"/>
</mask>
<g mask="url(#mask0_2517_12554)">
<rect x="19.5991" y="15" width="22.8" height="24" fill="#007BFF"/>
</g>
<path d="M65.0146 35.8324C63.6112 35.8324 62.4066 35.4773 61.4009 34.767C60.4009 34.0511 59.631 33.0199 59.0913 31.6733C58.5572 30.321 58.2901 28.6932 58.2901 26.7898C58.2958 24.8864 58.5657 23.267 59.0998 21.9318C59.6396 20.5909 60.4094 19.5682 61.4094 18.8636C62.4151 18.1591 63.6168 17.8068 65.0146 17.8068C66.4123 17.8068 67.614 18.1591 68.6197 18.8636C69.6254 19.5682 70.3952 20.5909 70.9293 21.9318C71.4691 23.2727 71.739 24.892 71.739 26.7898C71.739 28.6989 71.4691 30.3295 70.9293 31.6818C70.3952 33.0284 69.6254 34.0568 68.6197 34.767C67.6197 35.4773 66.418 35.8324 65.0146 35.8324ZM65.0146 33.1648C66.1055 33.1648 66.9663 32.6278 67.5969 31.554C68.2333 30.4744 68.5515 28.8864 68.5515 26.7898C68.5515 25.4034 68.4066 24.2386 68.1168 23.2955C67.8271 22.3523 67.418 21.642 66.8896 21.1648C66.3612 20.6818 65.7362 20.4403 65.0146 20.4403C63.9293 20.4403 63.0714 20.9801 62.4407 22.0597C61.81 23.1335 61.4918 24.7102 61.4862 26.7898C61.4805 28.1818 61.6197 29.3523 61.9038 30.3011C62.1935 31.25 62.6026 31.9659 63.131 32.4489C63.6594 32.9261 64.2873 33.1648 65.0146 33.1648Z" fill="white"/>
</svg>
