<svg width="40" height="40" viewBox="0 0 40 40" fill="none" xmlns="http://www.w3.org/2000/svg">
<rect width="40" height="40" rx="20" fill="#E1EEFF"/>
<path fill-rule="evenodd" clip-rule="evenodd" d="M21.8724 10.1522C21.4826 10 20.9884 10 20 10C19.0116 10 18.5174 10 18.1276 10.1522C17.6078 10.3552 17.1948 10.7446 16.9795 11.2346C16.8813 11.4583 16.8428 11.7185 16.8277 12.098C16.8056 12.6557 16.5023 13.1719 15.9896 13.4509C15.477 13.73 14.8512 13.7195 14.3279 13.4588C13.9718 13.2813 13.7136 13.1826 13.4589 13.151C12.9011 13.0818 12.337 13.2243 11.8907 13.5472C11.5559 13.7894 11.3088 14.1929 10.8146 14.9999C10.3204 15.807 10.0733 16.2105 10.0183 16.6049C9.94483 17.1308 10.096 17.6627 10.4385 18.0835C10.5948 18.2756 10.8145 18.437 11.1555 18.639C11.6568 18.936 11.9793 19.4419 11.9793 20C11.9792 20.5581 11.6567 21.0639 11.1555 21.3608C10.8144 21.5629 10.5947 21.7244 10.4384 21.9165C10.0959 22.3373 9.94472 22.8691 10.0182 23.395C10.0732 23.7894 10.3203 24.193 10.8145 25C11.3087 25.807 11.5558 26.2106 11.8906 26.4527C12.3369 26.7756 12.901 26.9181 13.4588 26.8489C13.7134 26.8173 13.9716 26.7186 14.3277 26.5412C14.8511 26.2804 15.4769 26.27 15.9896 26.549C16.5023 26.8281 16.8056 27.3443 16.8277 27.9021C16.8428 28.2815 16.8813 28.5417 16.9795 28.7654C17.1948 29.2554 17.6078 29.6448 18.1276 29.8478C18.5174 30 19.0116 30 20 30C20.9884 30 21.4826 30 21.8724 29.8478C22.3922 29.6448 22.8052 29.2554 23.0205 28.7654C23.1188 28.5417 23.1572 28.2815 23.1723 27.902C23.1944 27.3443 23.4977 26.8281 24.0103 26.549C24.5229 26.2699 25.1488 26.2804 25.6722 26.5412C26.0283 26.7186 26.2865 26.8172 26.5411 26.8488C27.0989 26.9181 27.663 26.7756 28.1093 26.4527C28.4441 26.2105 28.6912 25.807 29.1854 24.9999C29.6796 24.1929 29.9267 23.7894 29.9817 23.395C30.0552 22.8691 29.904 22.3372 29.5615 21.9164C29.4052 21.7243 29.1855 21.5628 28.8445 21.3608C28.3432 21.0639 28.0207 20.558 28.0207 19.9999C28.0208 19.4418 28.3433 18.9361 28.8445 18.6392C29.1855 18.4371 29.4053 18.2757 29.5616 18.0835C29.9041 17.6627 30.0553 17.1309 29.9818 16.605C29.9268 16.2106 29.6797 15.807 29.1855 15C28.6913 14.193 28.4442 13.7894 28.1094 13.5473C27.6631 13.2244 27.099 13.0818 26.5412 13.1511C26.2866 13.1827 26.0284 13.2814 25.6723 13.4588C25.1489 13.7196 24.523 13.73 24.0104 13.451C23.4977 13.1719 23.1944 12.6557 23.1723 12.0979C23.1572 11.7185 23.1187 11.4583 23.0205 11.2346C22.8052 10.7446 22.3922 10.3552 21.8724 10.1522ZM20 23C21.7573 23 23.1819 21.6569 23.1819 20C23.1819 18.3431 21.7573 17 20 17C18.2427 17 16.8181 18.3431 16.8181 20C16.8181 21.6569 18.2427 23 20 23Z" fill="#007BFF"/>
</svg>
