<svg width="19" height="20" viewBox="0 0 19 20" fill="none" xmlns="http://www.w3.org/2000/svg">
<rect y="0.5" width="19" height="19" rx="9.5" fill="white"/>
<mask id="mask0_2513_7111" style="mask-type:alpha" maskUnits="userSpaceOnUse" x="2" y="3" width="15" height="15">
<path d="M10.3582 4.54945L5.79932 11.0646C5.6775 11.238 5.77812 11.4372 5.98427 11.4372H7.85927C8.02326 11.4372 8.09365 11.5028 8.09365 11.6716L8.09365 16.7167C8.09365 17.0495 8.4966 17.1948 8.6887 16.9276L13.1975 10.9146C13.324 10.7412 13.2217 10.4997 13.0155 10.4997C13.0155 10.4997 11.6093 10.4997 11.3749 10.4997C11.1405 10.4997 10.9062 10.2653 10.9062 10.0309C10.9062 9.79655 10.9062 4.87467 10.9062 4.6403C10.9062 4.40593 10.5503 4.2776 10.3582 4.54945Z" fill="#212121"/>
</mask>
<g mask="url(#mask0_2513_7111)">
<rect x="2.37451" y="3" width="14.25" height="15" fill="#007BFF"/>
</g>
</svg>
