<svg width="16" height="16" viewBox="0 0 16 16" fill="none" xmlns="http://www.w3.org/2000/svg">
<path d="M3.80427 3.14355C3.65073 3.14355 3.49017 3.19516 3.37299 3.31216C3.13869 3.54676 3.13869 3.94035 3.37299 4.17495L7.14177 7.94355L3.37299 11.7122C3.13869 11.9468 3.13869 12.3403 3.37299 12.5749C3.60735 12.8089 4.00119 12.8089 4.23555 12.5749L8.00427 8.80636L11.773 12.5749C12.0074 12.8089 12.4012 12.8089 12.6356 12.5749C12.8699 12.3403 12.8699 11.9468 12.6356 11.7122L8.86677 7.94355L12.6356 4.17495C12.8699 3.94035 12.8699 3.54676 12.6356 3.31216C12.5184 3.19516 12.3578 3.14355 12.2043 3.14355C12.0507 3.14355 11.8902 3.19516 11.773 3.31216L8.00427 7.08075L4.23555 3.31216C4.11837 3.19516 3.95781 3.14355 3.80427 3.14355Z" fill="#007BFF"/>
</svg>
